<?xml version="1.0" encoding="utf-8"?>
<!-- Generator: Adobe Illustrator 19.0.1, SVG Export Plug-In . SVG Version: 6.00 Build 0)  -->
<svg version="1.1" id="Layer_1" xmlns="http://www.w3.org/2000/svg" xmlns:xlink="http://www.w3.org/1999/xlink" x="0px" y="0px"
	 width="72.2px" height="72.2px" viewBox="0 0 72.2 72.2" enable-background="new 0 0 72.2 72.2" xml:space="preserve">
<g>
	<path fill-rule="evenodd" clip-rule="evenodd" fill="#0DB04B" d="M0.1,72.2h72.2V0H0.1V72.2L0.1,72.2z M53.4,24v26.8h10v8.6H43.7
		V24.4l-12.7,0v20.9c0,10.5-5.9,15.7-13.5,15.7c-3.7,0-7.5-0.8-11.3-2.9l3.2-8.3c2.5,1.3,4.7,1.9,7.1,1.8c2.8-0.2,4.9-1.9,4.9-6.2
		V25.7c-3.2,1.2-5.4,3.4-8.2,6.9l-6.8-6.3c6-7.6,11.7-11.1,25-11.1h16.5c4.6,0,8.6-0.8,12.8-5l5.3,6.3C62.9,21.4,58.1,23.2,53.4,24z
		"/>
</g>
</svg>
